# Blender 4.2.3 LTS
# www.blender.org
mtllib axis.mtl
o axis
v -0.227871 0.283414 1.989397
v 0.227871 0.283414 1.989397
v -0.227871 -0.283414 1.989397
v 0.227871 -0.283414 1.989397
v -0.227871 0.283414 -0.010603
v 0.227871 0.283414 -0.010603
v -0.227871 -0.283414 -0.010603
v 0.227871 -0.283414 -0.010603
v 1.989397 0.283414 0.227871
v 1.989397 0.283414 -0.227871
v 1.989397 -0.283414 0.227871
v 1.989397 -0.283414 -0.227871
v -0.010603 0.283414 0.227871
v -0.010603 0.283414 -0.227871
v -0.010603 -0.283414 0.227871
v -0.010603 -0.283414 -0.227871
v -0.283414 1.989397 0.227871
v -0.283414 1.989397 -0.227871
v 0.283414 1.989397 0.227871
v 0.283414 1.989397 -0.227871
v -0.283414 -0.010603 0.227871
v -0.283414 -0.010603 -0.227871
v 0.283414 -0.010603 0.227871
v 0.283414 -0.010603 -0.227871
v -0.412194 -0.412194 -0.412194
v -0.412194 -0.412194 0.412194
v -0.412194 0.412194 -0.412194
v -0.412194 0.412194 0.412194
v 0.412194 -0.412194 -0.412194
v 0.412194 -0.412194 0.412194
v 0.412194 0.412194 -0.412194
v 0.412194 0.412194 0.412194
vn -1.0000 -0.0000 -0.0000
vn -0.0000 -1.0000 -0.0000
vn -0.0000 -0.0000 -1.0000
vn 1.0000 -0.0000 -0.0000
vn -0.0000 -0.0000 1.0000
vn -0.0000 1.0000 -0.0000
vt 0.374935 0.250000
vt 0.250000 0.374935
vt 0.250000 0.250000
vt 0.125065 0.499870
vt 0.125065 0.374935
vt 0.250000 0.000130
vt 0.125065 0.125065
vt 0.125065 0.000130
vt 0.125065 0.250000
vt 0.000130 0.374935
vt 0.000130 0.250000
vt 0.250000 0.125065
vt 0.750000 0.250000
vt 0.625065 0.374935
vt 0.625065 0.250000
vt 0.500130 0.499870
vt 0.500130 0.374935
vt 0.625065 0.000130
vt 0.500130 0.125065
vt 0.500130 0.000130
vt 0.500130 0.250000
vt 0.375195 0.374935
vt 0.375195 0.250000
vt 0.625065 0.125065
vt 0.374935 0.750000
vt 0.250000 0.874935
vt 0.250000 0.750000
vt 0.125065 0.999870
vt 0.125065 0.874935
vt 0.250000 0.500130
vt 0.125065 0.625065
vt 0.125065 0.500130
vt 0.125065 0.750000
vt 0.000130 0.874935
vt 0.000130 0.750000
vt 0.250000 0.625065
vt 0.375195 0.500130
vt 0.374935 0.374935
vt 0.250000 0.499870
vt 0.750000 0.374935
vt 0.625065 0.499870
vt 0.374935 0.874935
vt 0.250000 0.999870
s 0
usemtl axis
f 5/1/1 3/2/1 1/3/1
f 3/2/2 8/4/2 4/5/2
f 7/6/3 6/7/3 8/8/3
f 2/9/4 8/10/4 6/11/4
f 1/3/5 4/5/5 2/9/5
f 5/12/6 2/9/6 6/7/6
f 13/13/5 11/14/5 9/15/5
f 11/14/2 16/16/2 12/17/2
f 15/18/1 14/19/1 16/20/1
f 10/21/3 16/22/3 14/23/3
f 9/15/4 12/17/4 10/21/4
f 13/24/6 10/21/6 14/19/6
f 21/25/5 19/26/5 17/27/5
f 19/26/4 24/28/4 20/29/4
f 23/30/2 22/31/2 24/32/2
f 18/33/3 24/34/3 22/35/3
f 17/27/6 20/29/6 18/33/6
f 21/36/1 18/33/1 22/31/1
f 26/37/1 27/37/1 25/37/1
f 28/37/6 31/37/6 27/37/6
f 32/37/4 29/37/4 31/37/4
f 30/37/2 25/37/2 29/37/2
f 31/37/3 25/37/3 27/37/3
f 28/37/5 30/37/5 32/37/5
f 5/1/1 7/38/1 3/2/1
f 3/2/2 7/39/2 8/4/2
f 7/6/3 5/12/3 6/7/3
f 2/9/4 4/5/4 8/10/4
f 1/3/5 3/2/5 4/5/5
f 5/12/6 1/3/6 2/9/6
f 13/13/5 15/40/5 11/14/5
f 11/14/2 15/41/2 16/16/2
f 15/18/1 13/24/1 14/19/1
f 10/21/3 12/17/3 16/22/3
f 9/15/4 11/14/4 12/17/4
f 13/24/6 9/15/6 10/21/6
f 21/25/5 23/42/5 19/26/5
f 19/26/4 23/43/4 24/28/4
f 23/30/2 21/36/2 22/31/2
f 18/33/3 20/29/3 24/34/3
f 17/27/6 19/26/6 20/29/6
f 21/36/1 17/27/1 18/33/1
f 26/37/1 28/37/1 27/37/1
f 28/37/6 32/37/6 31/37/6
f 32/37/4 30/37/4 29/37/4
f 30/37/2 26/37/2 25/37/2
f 31/37/3 29/37/3 25/37/3
f 28/37/5 26/37/5 30/37/5
